HIERARCHY
ROOT hip
{
	OFFSET 0.000000 0.000000 0.000000 
	CHANNELS 6 Xposition Yposition Zposition Zrotation Xrotation Yrotation
	JOINT abdomen
	{
		OFFSET 0.000000 3.402643 0.000000 
		CHANNELS 3 Zrotation Xrotation Yrotation
		JOINT chest
		{
			OFFSET 0.000000 8.438565 -0.680529 
			CHANNELS 3 Zrotation Xrotation Yrotation
			JOINT neck
			{
				OFFSET 0.000000 10.207942 -0.272212 
				CHANNELS 3 Zrotation Xrotation Yrotation
				JOINT head
				{
					OFFSET 0.000000 3.130431 0.000000 
					CHANNELS 3 Zrotation Xrotation Yrotation
					End Site
					{
						OFFSET 0.000000 3.130435 0.000000 
					}
				}
			}
			JOINT lCollar
			{
				OFFSET 3.470700 6.669187 -0.816635 
				CHANNELS 3 Zrotation Xrotation Yrotation
				JOINT lShldr
				{
					OFFSET 3.198488 0.000000 0.000000 
					CHANNELS 3 Zrotation Xrotation Yrotation
					JOINT lForeArm
					{
						OFFSET 10.139888 0.000000 0.000000 
						CHANNELS 3 Zrotation Xrotation Yrotation
						JOINT lHand
						{
							OFFSET 8.370511 0.000000 0.000000 
							CHANNELS 3 Zrotation Xrotation Yrotation
							End Site
							{
								OFFSET 4.083176 0.000000 0.000000 
							}
						}
					}
				}
			}
			JOINT rCollar
			{
				OFFSET -3.470700 6.669187 -0.816635 
				CHANNELS 3 Zrotation Xrotation Yrotation
				JOINT rShldr
				{
					OFFSET -3.198488 0.000000 0.000000 
					CHANNELS 3 Zrotation Xrotation Yrotation
					JOINT rForeArm
					{
						OFFSET -10.139888 0.000000 0.000000 
						CHANNELS 3 Zrotation Xrotation Yrotation
						JOINT rHand
						{
							OFFSET -8.370511 0.000000 0.000000 
							CHANNELS 3 Zrotation Xrotation Yrotation
							End Site
							{
								OFFSET -4.083176 0.000000 0.000000 
							}
						}
					}
				}
			}
		}
	}
	JOINT lThigh
	{
		OFFSET 5.308129 -1.633274 1.361059 
		CHANNELS 3 Zrotation Xrotation Yrotation
		JOINT lShin
		{
			OFFSET -2.041588 -20.007561 0.000000 
			CHANNELS 3 Zrotation Xrotation Yrotation
			JOINT lFoot
			{
				OFFSET 0.000000 -19.190928 -1.224953 
				CHANNELS 3 Zrotation Xrotation Yrotation
				End Site
				{
					OFFSET 0.000000 -2.449906 4.627600 
				}
			}
		}
	}
	JOINT rThigh
	{
		OFFSET -5.308129 -1.633274 1.361059 
		CHANNELS 3 Zrotation Xrotation Yrotation
		JOINT rShin
		{
			OFFSET 2.041588 -20.007561 0.000000 
			CHANNELS 3 Zrotation Xrotation Yrotation
			JOINT rFoot
			{
				OFFSET 0.000000 -19.190928 -1.224953 
				CHANNELS 3 Zrotation Xrotation Yrotation
				End Site
				{
					OFFSET 0.000000 -2.449906 4.627600 
				}
			}
		}
	}
}
MOTION
Frames: 11
Frame Time: 0.033333
-0.031014 48.043873 0.347908 -0.000000 -0.000010 -0.000000 0.078125 0.156248 -0.000213 0.039063 0.009767 -0.000007 0.048907 -3.251955 0.002774 0.420084 -1.591753 -0.076150 0.256162 -0.059355 2.021472 -74.144981 13.946796 -8.353415 -34.242718 -4.130759 -26.023130 6.281919 -14.944652 -3.486034 -0.939334 -0.035086 -2.030979 81.501312 13.285582 9.323940 8.135587 8.096663 50.521404 -22.242655 -0.920679 3.144262 2.231860 -6.857272 0.754843 -1.855369 12.898641 -0.805108 -0.750459 -6.386361 0.111130 -4.285425 -6.975565 -0.461166 1.663324 13.073313 -0.315853 1.525313 -6.833469 -1.514819 
-0.077231 48.087082 0.418288 -0.000000 -0.000010 -0.000000 0.156252 0.312498 -0.000825 0.078125 0.019528 -0.000027 0.098423 -7.158200 0.012264 0.812024 -3.456685 -0.116914 7.370903 0.191052 2.004771 -77.522682 10.304062 -29.954941 -63.186810 -7.999902 -25.338247 6.172363 -32.502541 -3.979795 -8.844584 0.244044 -2.007088 94.255692 8.909200 31.963547 3.713017 13.854479 87.866135 -41.402439 -1.828420 2.619088 2.246126 -6.140391 0.700868 -1.672423 11.621109 -0.847718 -0.922756 -5.897854 0.143704 -4.165773 -6.445938 -0.448209 1.577662 12.166478 -0.258604 1.583944 -6.470877 -1.608660 
-0.211863 48.198311 0.516850 -0.000000 -0.000010 -0.000000 -0.000000 -0.000002 -0.000000 -0.000000 -0.000003 -0.000000 -0.000000 -11.005862 -0.000000 -0.000000 -5.000000 -0.000000 14.300438 0.431120 1.958825 -82.769264 6.787191 -47.457230 -81.143127 -11.975951 -17.096689 2.330820 -46.947922 -4.943434 -16.310799 0.507789 -1.958838 107.947144 5.122475 50.284454 -3.450424 17.008926 117.973015 -56.958069 -2.418075 1.985005 2.390164 -5.272397 0.627659 -1.837857 10.286583 -0.915367 -1.025469 -5.501355 0.342970 -3.948817 -5.516882 -0.784045 1.480307 10.591463 0.054689 1.454064 -5.799769 -1.387441 
-0.479600 48.420475 0.656019 -0.000000 -0.000010 -0.000000 -0.537205 -1.074173 -0.010163 -0.273438 -0.097653 -0.000466 -0.393185 -14.384443 -0.097744 -2.915394 -5.812830 0.260625 20.010324 0.623587 1.899410 -87.599823 5.011253 -56.323376 -86.765694 -12.647971 -11.248863 -6.833704 -54.229755 -5.777359 -22.089514 0.689643 -1.891151 117.762810 3.394940 59.466911 -8.230179 18.460876 130.745911 -64.333435 -2.630549 1.641243 2.639144 -2.818470 0.422729 -1.254882 5.343544 -0.620221 -1.937108 -2.952867 0.173331 -3.507116 -2.960331 -0.218609 1.177478 5.603519 -0.626952 1.323264 -3.254665 -1.305117 
-0.726843 48.681446 0.801771 -0.000000 -0.000010 -0.000000 -1.114122 -2.226140 -0.043282 -0.556644 -0.185539 -0.001803 -0.970735 -17.116827 -0.285891 -6.687600 -6.033198 0.620922 23.358496 0.729502 1.855746 -90.411942 4.671678 -57.978870 -87.301743 -6.932080 -10.389297 -15.643044 -55.523399 -5.850688 -25.222872 0.791901 -1.846349 121.900681 3.087143 61.048378 -10.538013 20.449652 132.165436 -65.131248 -2.646522 1.598576 2.893714 -0.952943 0.273741 -0.995210 1.678276 -0.509984 -2.450030 -1.249861 0.226362 -3.191994 -1.043109 -0.304095 0.966962 1.785855 -0.755803 1.287814 -1.453664 -1.095512 
-0.750422 48.880310 0.908466 -0.000000 -0.000010 -0.000000 -1.270778 -2.538437 -0.056507 -0.634770 -0.214834 -0.002380 -1.570547 -19.065620 -0.513388 -9.535488 -6.019807 0.981339 23.153381 0.726718 1.858606 -90.712738 5.163503 -55.324921 -85.746361 4.744716 -12.336413 -17.491510 -53.320431 -5.493748 -24.851797 0.784024 -1.851947 120.399391 3.556168 58.204861 -13.110766 22.533470 132.545944 -62.499008 -2.576414 1.725051 2.881490 -0.203905 0.131522 -0.914857 0.613307 -0.334122 -2.497188 -0.843756 0.195621 -3.136407 -0.233938 -0.249282 0.915836 0.506352 -0.695026 1.228746 -0.943544 -1.050973 
-0.431453 48.936012 0.934241 -0.000000 -0.000010 -0.000000 -0.732661 -1.464725 -0.018729 -0.371095 -0.126944 -0.000822 -1.943044 -19.969893 -0.663825 -10.213482 -6.036355 1.197996 19.083054 0.592748 1.910359 -88.505905 6.021034 -51.083195 -83.053520 20.676447 -14.940654 -8.897644 -49.884232 -5.219116 -20.888924 0.649845 -1.906819 114.361359 4.363745 53.918713 -18.595594 22.911808 139.250931 -59.270138 -2.490126 1.881667 2.528814 -1.569482 0.305736 -1.034888 3.198723 -0.582058 -1.963244 -2.049198 0.203948 -3.544547 -1.607683 -0.387471 1.025453 3.187922 -0.579960 1.559023 -2.318027 -1.139651 
0.011791 48.846909 0.852333 -0.000000 -0.000010 -0.000000 -0.000000 -0.000002 -0.000000 -0.000000 -0.000003 -0.000000 -1.570547 -19.065620 -0.513388 -9.535488 -6.019807 0.981339 14.300438 0.431120 1.958825 -84.814735 6.792023 -47.457859 -79.622665 35.966160 -18.398203 2.330820 -46.947922 -4.943434 -16.320654 0.505374 -1.958742 107.962685 5.117698 50.283939 -24.111313 21.429024 147.274796 -56.958069 -2.418075 1.985005 1.993073 -3.722689 0.436808 -1.356863 7.481510 -0.747657 -1.151755 -4.219445 0.255704 -4.146173 -3.814844 -0.642361 1.231733 7.683425 -0.163560 1.884908 -4.677330 -1.336204 
0.339007 48.631592 0.652710 -0.000000 -0.000010 -0.000000 0.419968 0.849589 -0.006227 0.205078 0.068363 -0.000210 -0.182544 -15.644456 -0.049256 -8.593375 -6.064482 0.187404 11.714021 0.342177 1.979371 -80.568863 7.110222 -46.031086 -76.501541 46.080563 -22.059093 7.610029 -45.674442 -4.786184 -13.870926 0.418759 -1.971999 104.707581 5.455589 48.811348 -26.428196 20.354597 150.790741 -56.461548 -2.396796 2.010756 1.676688 -5.734612 0.599764 -1.682058 11.304499 -0.829505 -0.500709 -6.064991 0.268213 -4.667240 -5.814001 -0.907189 1.454972 11.509403 0.110202 2.082318 -6.423016 -1.353067 
0.558932 48.310257 0.377171 -0.000000 -0.000010 -0.000000 0.840205 1.679504 -0.024627 0.419923 0.136715 -0.001002 1.357995 -9.870334 0.232828 -7.524416 -7.426460 -0.862172 9.840119 0.277216 1.991737 -75.978493 7.059087 -46.431252 -74.917053 50.678680 -24.369232 7.635699 -45.677269 -4.777746 -12.211722 0.361441 -1.985277 103.001282 5.402649 49.298931 -26.319885 20.249014 150.849869 -57.477654 -2.431566 1.965559 1.494687 -7.294563 0.711139 -2.061355 13.888721 -0.700784 0.074730 -7.068436 0.149760 -5.060642 -7.401158 -1.136219 1.701866 14.151964 0.211144 2.208964 -7.491132 -1.227760 
0.742562 47.903473 0.080473 -0.000000 -0.000010 -0.000000 1.721846 3.445713 -0.103227 0.859385 0.283169 -0.004248 2.013144 -2.147117 0.075796 -6.232430 -11.651386 -1.585728 6.131422 0.147613 2.009919 -71.134705 6.829471 -47.790039 -75.396942 50.312920 -24.463333 5.504705 -46.196751 -4.848654 -8.971454 0.248482 -2.006396 99.960793 5.137504 51.124481 -25.330454 20.411501 149.808441 -59.410194 -2.493454 1.877170 1.335380 -9.377462 0.874166 -2.701680 17.442476 -0.526637 0.429765 -8.397559 0.306694 -5.460710 -9.461377 -1.344554 1.783517 17.738707 0.232964 2.450767 -8.995625 -1.057781 
